<?xml version="1.0" encoding="UTF-8" standalone="no"?><!-- Generator: Gravit.io --><svg xmlns="http://www.w3.org/2000/svg" xmlns:xlink="http://www.w3.org/1999/xlink" style="isolation:isolate" viewBox="0 0 1080 1080" width="1080pt" height="1080pt"><defs><clipPath id="_clipPath_b75RY9EkkKQr4wRMajppUGvNJWxo6uoB"><rect width="1080" height="1080"/></clipPath></defs><g clip-path="url(#_clipPath_b75RY9EkkKQr4wRMajppUGvNJWxo6uoB)"><rect width="1080" height="1080" style="fill:rgb(47,47,47)" fill-opacity="0"/><g><g><path d=" M 164.62 324.895 L 164.62 988.833 C 164.62 998.308 172.312 1006 181.787 1006 L 333.999 1006 C 343.473 1006 351.165 998.308 351.165 988.833 L 351.165 787.046 L 675.774 787.046 L 675.774 814.512 C 675.774 823.987 683.466 831.679 692.94 831.679 L 854.152 831.679 C 863.627 831.679 871.223 823.988 871.105 814.514 L 870.747 785.849 L 898.213 785.849 C 907.688 785.849 915.38 778.157 915.38 768.682 L 915.38 280.261 C 915.38 270.787 907.688 263.095 898.213 263.095 L 870.747 263.095 L 870.747 166.336 C 870.747 156.862 863.054 149.17 853.58 149.17 L 692.94 149.17 C 683.466 149.17 672.3 151.944 668.023 155.36 L 668.023 155.36 C 663.745 158.777 656.705 158.777 652.312 155.36 L 652.312 155.36 C 647.92 151.944 636.661 149.17 627.186 149.17 L 569.756 149.17 L 569.756 91.167 C 569.756 81.692 562.064 74 552.589 74 L 404.955 74 C 395.48 74 387.788 81.692 387.788 91.167 L 387.788 149.898 L 339.617 149.898 Q 322.45 149.898 305.283 149.898 L 289.937 149.898 C 280.463 149.898 272.771 157.59 272.771 167.065 L 272.771 263.095 L 226.42 263.095 Q 209.253 263.095 192.087 263.095 L 181.787 263.095 C 172.312 263.095 164.62 270.787 164.62 280.261 L 164.62 290.562 Q 164.62 307.728 164.62 324.895 Z " fill="rgb(255,255,255)"/><path d=" M 531.157 532.925 L 531.157 618.846 C 531.157 623.162 527.652 626.666 523.336 626.666 L 330.271 626.666 C 325.954 626.666 322.45 623.162 322.45 618.846 L 322.45 529.388 L 322.45 529.388 L 322.45 529.388 L 322.45 288.845 L 322.45 288.845 L 322.45 199.387 C 322.45 195.071 325.954 191.566 330.271 191.566 L 419.729 191.566 L 419.729 191.566 L 636.533 191.566 C 640.849 191.566 644.353 195.071 644.353 199.387 L 644.353 199.387 L 644.353 199.387 L 644.353 199.387 L 644.353 199.387 L 644.353 199.387 L 644.353 199.387 L 644.353 199.387 L 644.353 281.024 C 644.353 285.341 640.849 288.845 636.533 288.845 L 419.729 288.845 L 419.729 529.388 L 433.878 529.388 L 433.878 402.042 L 433.878 402.042 L 433.878 312.584 C 433.878 308.267 437.382 304.763 441.699 304.763 L 554.895 304.763 L 554.895 304.763 L 636.533 304.763 C 640.849 304.763 644.353 308.267 644.353 312.584 L 644.353 640.816 L 644.353 640.816 L 644.353 640.816 L 644.353 732.043 C 644.353 736.359 640.849 739.863 636.533 739.863 L 306.532 739.863 L 306.532 947.321 C 306.532 956.795 298.84 964.488 289.365 964.488 L 226.42 964.488 C 216.946 964.488 209.253 956.795 209.253 947.321 L 209.253 321.93 C 209.253 312.455 216.946 304.763 226.42 304.763 L 226.42 304.763 L 289.365 304.763 C 298.84 304.763 306.532 312.455 306.532 321.93 L 306.532 640.816 L 306.532 640.816 L 547.075 640.816 L 547.075 402.042 L 547.075 402.042 L 547.075 402.042 L 547.075 402.042 L 547.075 402.042 L 547.075 402.042 L 547.075 402.042 L 547.075 402.042 L 547.075 402.042 L 547.075 402.042 L 531.157 402.042 L 531.157 532.925 L 531.157 532.925 Z  M 772.584 402.042 L 757.55 402.042 L 757.55 402.042 L 757.55 618.846 C 757.55 623.162 754.046 626.666 749.729 626.666 L 667.208 626.666 C 662.891 626.666 659.387 623.162 659.387 618.846 L 659.387 402.042 L 659.387 402.042 L 659.387 312.584 C 659.387 308.267 662.891 304.763 667.208 304.763 L 862.926 304.763 C 867.242 304.763 870.747 308.267 870.747 312.584 L 870.747 312.584 L 870.747 312.584 L 870.747 312.584 L 870.747 398.504 L 870.747 398.504 L 870.747 649.659 L 870.747 649.659 L 870.747 732.043 C 870.747 736.359 867.242 739.863 862.926 739.863 L 668.092 739.863 C 663.776 739.863 660.272 736.359 660.272 732.043 L 660.272 650.405 C 660.272 646.089 663.776 642.585 668.092 642.585 L 772.584 642.585 L 772.584 642.585 L 772.584 402.042 L 772.584 402.042 L 772.584 402.042 Z  M 508.163 141.055 L 508.163 146.569 C 508.163 148.464 506.625 150.002 504.73 150.002 L 456.767 150.002 C 454.872 150.002 453.334 148.464 453.334 146.569 L 453.334 141.055 C 453.334 139.16 454.872 137.621 456.767 137.621 L 504.73 137.621 C 506.625 137.621 508.163 139.16 508.163 141.055 L 508.163 141.055 L 508.163 141.055 L 508.163 141.055 L 508.163 141.055 L 508.163 141.055 L 508.163 141.055 L 508.163 141.055 L 508.163 141.055 L 508.163 141.055 L 508.163 141.055 L 508.163 141.055 L 508.163 141.055 L 508.163 141.055 L 508.163 141.055 Z  M 814.148 208.733 L 814.148 271.678 C 814.148 281.153 806.456 288.845 796.981 288.845 L 734.037 288.845 C 724.562 288.845 716.87 281.153 716.87 271.678 L 716.87 208.733 C 716.87 199.259 724.562 191.566 734.037 191.566 L 796.981 191.566 C 806.456 191.566 814.148 199.259 814.148 208.733 L 814.148 208.733 L 814.148 208.733 L 814.148 208.733 L 814.148 208.733 L 814.148 208.733 L 814.148 208.733 L 814.148 208.733 Z  M 817.686 767.902 L 817.686 775.497 C 817.686 780.234 813.84 784.08 809.102 784.08 L 728.991 784.08 C 724.253 784.08 720.407 780.234 720.407 775.497 L 720.407 767.902 C 720.407 763.165 724.253 759.319 728.991 759.319 L 809.102 759.319 C 813.84 759.319 817.686 763.165 817.686 767.902 L 817.686 767.902 L 817.686 767.902 L 817.686 767.902 L 817.686 767.902 Z  M 529.388 124.096 L 529.388 163.527 C 529.388 168.265 525.542 172.111 520.804 172.111 L 440.693 172.111 C 435.956 172.111 432.109 168.265 432.109 163.527 L 432.109 124.096 C 432.109 119.359 435.956 115.512 440.693 115.512 L 520.804 115.512 C 525.542 115.512 529.388 119.359 529.388 124.096 L 529.388 124.096 L 529.388 124.096 L 529.388 124.096 L 529.388 124.096 L 529.388 124.096 L 529.388 124.096 L 529.388 124.096 L 529.388 124.096 L 529.388 124.096 L 529.388 124.096 L 529.388 124.096 L 529.388 124.096 L 529.388 124.096 L 529.388 124.096 Z " fill-rule="evenodd" fill="rgb(255,170,0)"/></g></g></g></svg>